<svg xmlns="http://www.w3.org/2000/svg" xmlns:xlink="http://www.w3.org/1999/xlink" width="1920" zoomAndPan="magnify" viewBox="0 0 1440 809.999993" height="1080" preserveAspectRatio="xMidYMid meet" version="1.0"><defs><clipPath id="425ae4b451"><path d="M 685.3125 348 L 782.027344 348 L 782.027344 472 L 685.3125 472 Z M 685.3125 348 " clip-rule="nonzero"/></clipPath><clipPath id="9664c3b675"><path d="M 674 325.5 L 696 325.5 L 696 362 L 674 362 Z M 674 325.5 " clip-rule="nonzero"/></clipPath><clipPath id="c3db489e0e"><path d="M 685.3125 461 L 729.546875 461 L 729.546875 483.75 L 685.3125 483.75 Z M 685.3125 461 " clip-rule="nonzero"/></clipPath></defs><g clip-path="url(#425ae4b451)"><path fill="#9d7550" d="M 781.945312 471.53125 C 769.539062 465.757812 757.222656 459.558594 745.980469 451.597656 C 734.769531 443.535156 725.226562 433.589844 715.796875 423.667969 C 711.160156 418.640625 706.261719 413.789062 702.445312 407.929688 C 698.636719 402.058594 696.21875 395.488281 694.207031 388.933594 C 690.085938 375.832031 687.101562 362.371094 685.351562 348.777344 L 685.523438 348.75 C 688.351562 362.152344 691.800781 375.375 695.941406 388.390625 C 698.046875 394.859375 700.289062 401.3125 703.847656 407.039062 C 707.433594 412.730469 712.136719 417.769531 716.523438 423.015625 C 720.988281 428.195312 725.59375 433.265625 730.636719 437.882812 C 735.648438 442.542969 741.136719 446.628906 746.820312 450.394531 C 758.09375 458.058594 770.144531 464.535156 782.027344 471.371094 L 781.945312 471.53125 " fill-opacity="1" fill-rule="nonzero"/></g><g clip-path="url(#9664c3b675)"><path fill="#9d7550" d="M 692.410156 359.035156 C 691.3125 360.394531 689.859375 361.707031 687.945312 361.890625 C 685.996094 361.988281 684.320312 360.769531 682.96875 359.617188 C 681.597656 358.40625 680.402344 357.0625 679.25 355.71875 C 678.050781 354.339844 677.015625 352.808594 676.1875 351.132812 C 675.394531 349.457031 674.832031 347.589844 674.804688 345.652344 C 674.761719 343.710938 675.28125 341.867188 675.882812 340.164062 C 677.121094 336.785156 678.675781 333.558594 680.507812 330.488281 C 680.957031 329.722656 681.417969 328.953125 681.894531 328.207031 L 682.628906 327.089844 C 682.882812 326.730469 683.023438 326.308594 683.519531 325.941406 C 684.050781 325.582031 684.730469 325.808594 685.097656 326.101562 C 685.496094 326.390625 685.800781 326.777344 686.050781 327.144531 C 686.5625 327.871094 687.101562 328.574219 687.589844 329.320312 C 689.617188 332.246094 691.523438 335.285156 693.015625 338.554688 C 694.449219 341.816406 695.636719 345.308594 695.714844 348.984375 C 695.769531 350.800781 695.53125 352.640625 694.988281 354.363281 C 694.414062 356.070312 693.550781 357.664062 692.410156 359.035156 Z M 692.273438 358.921875 C 693.378906 357.5625 694.191406 355.949219 694.539062 354.246094 C 694.863281 352.53125 694.875 350.78125 694.605469 349.082031 C 694.066406 345.679688 692.859375 342.398438 691.664062 339.113281 C 690.4375 335.851562 689.015625 332.605469 687.117188 329.640625 C 686.636719 328.898438 686.148438 328.167969 685.613281 327.46875 C 685.160156 326.796875 684.363281 326.101562 683.867188 326.460938 C 683.632812 326.617188 683.417969 327.0625 683.1875 327.433594 L 682.558594 328.589844 C 682.144531 329.371094 681.742188 330.148438 681.363281 330.945312 C 679.855469 334.125 678.558594 337.394531 677.464844 340.699219 C 676.933594 342.34375 676.5625 343.988281 676.644531 345.597656 C 676.734375 347.214844 677.183594 348.820312 677.894531 350.324219 C 678.578125 351.851562 679.539062 353.277344 680.574219 354.644531 C 681.660156 356.042969 682.671875 357.488281 683.789062 358.785156 C 684.910156 360.050781 686.25 361.273438 687.9375 361.390625 C 689.636719 361.460938 691.179688 360.25 692.273438 358.921875 " fill-opacity="1" fill-rule="nonzero"/></g><path fill="#9d7550" d="M 684.710938 373.574219 C 683.175781 371.636719 681.792969 369.589844 680.402344 367.5625 C 679.734375 366.554688 679.027344 365.601562 678.203125 364.847656 C 677.402344 364.09375 676.394531 363.636719 675.289062 363.210938 C 674.175781 362.789062 672.972656 362.394531 671.824219 361.757812 C 670.683594 361.121094 669.695312 360.328125 668.75 359.539062 C 666.90625 357.960938 664.867188 356.367188 662.46875 356.324219 L 662.695312 355.773438 L 666.246094 358.746094 C 667.4375 359.753906 668.585938 360.929688 669.414062 362.351562 C 670.257812 363.726562 670.808594 365.1875 671.550781 366.4375 C 672.28125 367.707031 673.167969 368.675781 674.375 369.332031 C 675.585938 369.984375 677.035156 370.4375 678.5 370.957031 L 682.835938 372.554688 C 684.28125 373.070312 685.710938 373.660156 687.140625 374.226562 C 687.867188 374.511719 688.53125 374.816406 689.222656 374.871094 C 689.5625 374.898438 689.941406 374.820312 690.34375 374.792969 C 690.730469 374.757812 691.234375 374.808594 691.523438 375.144531 L 691.40625 375.277344 C 690.785156 374.882812 690.085938 375.394531 689.242188 375.476562 C 688.378906 375.574219 687.578125 375.320312 686.84375 375.132812 C 685.351562 374.746094 683.851562 374.371094 682.378906 373.9375 L 677.941406 372.65625 C 676.492188 372.1875 674.949219 371.820312 673.457031 370.984375 C 671.914062 370.191406 670.742188 368.703125 670.023438 367.28125 C 669.273438 365.835938 668.75 364.390625 668.09375 363.085938 C 666.785156 360.519531 664.429688 358.414062 662.265625 356.242188 L 661.652344 355.628906 L 662.496094 355.6875 C 665.148438 355.875 667.1875 357.589844 669.234375 358.882812 C 670.265625 359.546875 671.300781 360.183594 672.371094 360.617188 C 673.449219 361.039062 674.625 361.308594 675.828125 361.730469 C 677.015625 362.144531 678.289062 362.765625 679.253906 363.742188 C 680.230469 364.679688 680.894531 365.808594 681.511719 366.886719 C 682.675781 369.0625 683.839844 371.226562 684.859375 373.488281 L 684.710938 373.574219 " fill-opacity="1" fill-rule="nonzero"/><path fill="#9d7550" d="M 715.121094 381.171875 C 718.804688 380.757812 722.507812 380.328125 725.9375 379.121094 C 727.644531 378.519531 729.25 377.691406 730.707031 376.679688 C 732.152344 375.644531 733.421875 374.371094 734.480469 372.933594 C 736.59375 370.042969 738.058594 366.699219 739 363.175781 C 739.980469 359.65625 740.527344 355.988281 741 352.308594 L 741.460938 352.660156 C 735.164062 355.011719 729.304688 358.488281 724.058594 362.648438 C 722.746094 363.679688 721.484375 364.785156 720.222656 365.882812 C 718.96875 366.996094 717.734375 368.109375 716.746094 369.363281 C 715.734375 370.605469 715.066406 371.972656 714.957031 373.488281 C 714.804688 375.007812 715.167969 376.609375 715.308594 378.386719 C 715.375 379.273438 715.371094 380.210938 715.183594 381.152344 C 714.984375 382.09375 714.691406 382.886719 714.367188 383.710938 C 713.710938 385.332031 712.9375 386.859375 712.191406 388.347656 C 711.449219 389.847656 710.765625 391.335938 710.332031 392.867188 C 709.898438 394.429688 709.53125 396.066406 709.273438 397.699219 C 708.277344 404.238281 708.699219 411.046875 710.800781 417.453125 L 710.632812 417.515625 C 707.847656 411.335938 706.902344 404.300781 707.71875 397.484375 C 707.917969 395.769531 708.207031 394.097656 708.617188 392.398438 C 709.074219 390.675781 709.785156 389.078125 710.511719 387.539062 C 711.230469 385.996094 712.011719 384.519531 712.613281 383.011719 C 712.917969 382.273438 713.1875 381.476562 713.351562 380.765625 C 713.511719 380.054688 713.539062 379.292969 713.496094 378.5 C 713.421875 376.914062 713.054688 375.175781 713.261719 373.320312 C 713.433594 371.449219 714.367188 369.679688 715.527344 368.359375 C 716.695312 367.003906 718.023438 365.910156 719.332031 364.832031 C 720.652344 363.757812 722.019531 362.746094 723.40625 361.773438 C 728.980469 357.871094 734.984375 354.699219 741.207031 352.027344 L 741.71875 351.8125 L 741.671875 352.378906 C 741.359375 356.078125 741.125 359.808594 740.320312 363.5 C 739.507812 367.167969 738.097656 370.839844 735.691406 373.859375 C 733.355469 376.914062 729.96875 379.230469 726.285156 380.191406 C 722.621094 381.261719 718.839844 381.402344 715.132812 381.351562 L 715.121094 381.171875 " fill-opacity="1" fill-rule="nonzero"/><path fill="#9d7550" d="M 712.644531 384.089844 C 712.859375 382.140625 712.410156 380.273438 711.667969 378.59375 C 710.917969 376.894531 709.769531 375.410156 708.546875 373.957031 C 707.34375 372.484375 706.046875 371.011719 704.675781 369.625 C 703.296875 368.242188 701.824219 366.953125 700.296875 365.746094 L 700.867188 365.398438 C 701.449219 367.613281 702.089844 369.804688 702.617188 372.023438 C 703.113281 374.246094 703.667969 376.457031 704.097656 378.699219 C 704.546875 380.910156 704.917969 383.085938 705.8125 385.058594 C 706.703125 386.992188 708.070312 388.804688 710.128906 389.792969 L 710.082031 389.957031 C 707.738281 389.558594 705.757812 387.78125 704.539062 385.726562 C 703.300781 383.640625 702.6875 381.304688 702.242188 379.066406 C 701.789062 376.832031 701.464844 374.574219 701.074219 372.324219 C 700.71875 370.078125 700.472656 367.800781 700.171875 365.539062 L 700.023438 364.472656 L 700.753906 365.191406 C 702.148438 366.582031 703.597656 367.894531 705.148438 369.105469 C 706.722656 370.292969 708.320312 371.460938 709.714844 372.925781 C 711.082031 374.390625 712.246094 376.148438 712.902344 378.117188 C 713.550781 380.066406 713.628906 382.277344 712.820312 384.128906 L 712.644531 384.089844 " fill-opacity="1" fill-rule="nonzero"/><path fill="#9d7550" d="M 707.765625 397.988281 C 709.890625 398.902344 712.140625 398.527344 714.382812 398.246094 C 716.628906 397.949219 718.824219 397.46875 721.03125 396.972656 C 723.234375 396.496094 725.46875 395.929688 727.5625 395.019531 C 729.65625 394.089844 731.585938 392.824219 733.347656 391.382812 L 733.546875 392.246094 C 731.191406 392.015625 728.917969 391.394531 726.707031 390.808594 C 724.5 390.226562 722.308594 389.757812 720.152344 389.714844 C 718.007812 389.667969 715.847656 390.128906 713.878906 391.097656 C 711.890625 392.050781 710.105469 393.46875 708.664062 395.273438 L 708.511719 395.183594 C 709.472656 393.035156 711.152344 391.195312 713.199219 389.894531 C 715.246094 388.617188 717.6875 387.820312 720.160156 387.828125 C 722.632812 387.828125 724.964844 388.507812 727.175781 389.210938 C 729.394531 389.910156 731.507812 390.746094 733.707031 391.296875 L 734.855469 391.582031 L 733.90625 392.160156 C 731.917969 393.394531 729.871094 394.476562 727.8125 395.535156 C 725.746094 396.585938 723.65625 397.652344 721.425781 398.398438 C 719.1875 399.109375 716.847656 399.496094 714.507812 399.613281 C 712.246094 399.71875 709.570312 399.6875 707.671875 398.140625 L 707.765625 397.988281 " fill-opacity="1" fill-rule="nonzero"/><path fill="#9d7550" d="M 732.089844 365.207031 C 731.363281 367.160156 729.882812 368.722656 728.210938 369.816406 C 727.339844 370.339844 726.367188 370.675781 725.523438 371.191406 C 724.664062 371.695312 723.914062 372.332031 723.195312 373.023438 C 721.785156 374.425781 720.320312 375.664062 718.992188 377.003906 C 717.59375 378.285156 716.324219 379.613281 715.066406 381.207031 L 714.902344 381.136719 C 715.113281 379.066406 716.261719 377.164062 717.65625 375.671875 C 719.117188 374.21875 720.808594 373.066406 722.640625 372.230469 C 723.539062 371.789062 724.421875 371.332031 725.199219 370.714844 C 725.980469 370.113281 726.617188 369.320312 727.320312 368.648438 C 728.777344 367.355469 730.277344 366.277344 731.949219 365.09375 L 732.089844 365.207031 " fill-opacity="1" fill-rule="nonzero"/><path fill="#9d7550" d="M 705.664062 376.078125 C 706.503906 376.875 706.980469 377.632812 707.277344 378.523438 C 707.386719 378.988281 707.378906 379.546875 707.601562 379.984375 C 707.808594 380.425781 708.195312 380.742188 708.617188 381.027344 C 709.496094 381.558594 710.242188 382.238281 710.851562 383.136719 C 711.375 384.046875 711.699219 385.339844 711.148438 386.398438 L 710.972656 386.40625 C 710.359375 385.472656 709.832031 384.898438 709.273438 384.179688 C 708.789062 383.433594 708.214844 382.640625 707.863281 381.636719 C 707.664062 381.144531 707.457031 380.683594 707.125 380.292969 C 706.800781 379.910156 706.292969 379.613281 705.964844 379.195312 C 705.367188 378.332031 705.148438 377.234375 705.492188 376.121094 L 705.664062 376.078125 " fill-opacity="1" fill-rule="nonzero"/><path fill="#9d7550" d="M 724.363281 393.121094 C 723.027344 393.882812 721.6875 394.230469 720.292969 394.304688 C 719.585938 394.304688 718.851562 394.140625 718.15625 394.210938 C 717.449219 394.265625 716.785156 394.507812 716.128906 394.796875 C 714.839844 395.417969 713.503906 395.820312 712.164062 396.164062 C 710.800781 396.441406 709.558594 396.578125 708.097656 396.882812 L 708 396.738281 C 708.863281 395.4375 710.359375 394.753906 711.699219 394.339844 C 713.082031 393.992188 714.484375 393.78125 715.9375 393.84375 C 716.664062 393.855469 717.375 393.828125 718.050781 393.640625 C 718.738281 393.46875 719.386719 393.066406 720.0625 392.855469 C 721.445312 392.5 722.882812 392.496094 724.34375 392.953125 L 724.363281 393.121094 " fill-opacity="1" fill-rule="nonzero"/><path fill="#9d7550" d="M 683.492188 406.347656 C 682.441406 402.921875 681.230469 399.574219 679.789062 396.34375 C 678.300781 393.164062 676.5625 390.039062 673.824219 388.007812 C 672.453125 387 670.914062 386.140625 669.371094 385.160156 C 667.835938 384.179688 666.386719 383.074219 665.039062 381.863281 C 662.292969 379.492188 659.910156 376.804688 657.394531 374.269531 L 657.925781 373.972656 C 659.265625 379.910156 660.988281 385.875 664.179688 390.996094 C 665.777344 393.539062 667.65625 395.894531 669.953125 397.753906 C 672.199219 399.65625 674.9375 400.890625 677.675781 402.324219 C 680.402344 403.769531 682.988281 405.203125 685.828125 406.082031 C 687.246094 406.554688 688.71875 406.941406 690.199219 407.375 C 691.675781 407.832031 693.140625 408.320312 694.585938 408.863281 C 700.386719 410.992188 705.875 413.933594 710.828125 417.535156 L 710.730469 417.6875 C 705.410156 414.667969 699.832031 412.214844 694.082031 410.328125 C 691.199219 409.378906 688.277344 408.75 685.269531 407.851562 C 682.226562 406.980469 679.441406 405.40625 676.808594 403.941406 C 674.175781 402.472656 671.308594 401.105469 668.910156 398.984375 C 666.53125 396.875 664.617188 394.332031 663.164062 391.582031 C 660.222656 386.066406 658.921875 380.003906 657.3125 374.121094 L 657 372.984375 L 657.84375 373.820312 C 660.371094 376.339844 663.046875 378.710938 665.847656 380.875 C 667.257812 381.941406 668.703125 382.949219 670.179688 383.875 C 671.660156 384.792969 673.296875 385.597656 674.769531 386.785156 C 677.734375 389.175781 679.601562 392.527344 680.851562 395.902344 C 682.136719 399.273438 683.089844 402.757812 683.65625 406.304688 L 683.492188 406.347656 " fill-opacity="1" fill-rule="nonzero"/><path fill="#9d7550" d="M 686.859375 407.582031 C 684.683594 407.25 682.789062 408.414062 681.28125 409.800781 C 679.761719 411.21875 678.238281 412.945312 676.414062 414.238281 C 674.605469 415.558594 672.585938 416.554688 670.539062 417.398438 C 668.488281 418.234375 666.425781 418.988281 664.3125 419.628906 L 664.328125 419.015625 C 666.933594 419.679688 669.578125 420.191406 672.15625 420.273438 C 673.441406 420.285156 674.722656 420.210938 675.929688 419.890625 C 677.148438 419.582031 678.308594 419.058594 679.457031 418.476562 C 681.742188 417.265625 683.886719 415.765625 685.960938 414.078125 C 688.027344 412.402344 690.070312 410.671875 692.015625 408.800781 L 692.152344 408.910156 C 690.671875 411.199219 688.871094 413.257812 686.921875 415.164062 C 684.992188 417.066406 682.824219 418.875 680.328125 420.148438 C 677.859375 421.484375 674.851562 422.109375 672.0625 421.792969 C 669.246094 421.515625 666.683594 420.5 664.140625 419.628906 L 663.070312 419.265625 L 664.152344 419.015625 C 666.261719 418.53125 668.320312 417.777344 670.195312 416.6875 C 672.082031 415.621094 673.789062 414.300781 675.460938 412.988281 C 676.304688 412.324219 677.128906 411.652344 677.929688 410.949219 C 678.714844 410.230469 679.546875 409.484375 680.445312 408.785156 C 682.191406 407.410156 684.769531 406.449219 686.914062 407.417969 L 686.859375 407.582031 " fill-opacity="1" fill-rule="nonzero"/><path fill="#9d7550" d="M 680.878906 405.148438 C 679.753906 403.976562 679.132812 402.46875 678.523438 401.066406 C 677.9375 399.597656 677.382812 398.390625 676.5 397.230469 C 675.660156 396.039062 674.632812 394.871094 673.449219 393.890625 C 672.261719 392.910156 670.949219 392.078125 669.683594 391.132812 C 668.398438 390.207031 667.207031 389.148438 666.164062 387.960938 C 665.109375 386.792969 664.113281 385.5625 663.25 384.257812 C 661.539062 381.613281 660.179688 378.808594 659.128906 375.855469 L 659.289062 375.769531 C 661.304688 378.171875 663.035156 380.722656 664.804688 383.191406 C 666.511719 385.714844 668.316406 388.117188 670.324219 390.414062 C 671.347656 391.546875 672.523438 392.550781 673.796875 393.433594 C 675.066406 394.320312 676.457031 395.101562 677.625 396.28125 C 678.804688 397.449219 679.449219 399.15625 679.816406 400.617188 C 680.25 402.109375 680.484375 403.617188 681.03125 405.050781 L 680.878906 405.148438 " fill-opacity="1" fill-rule="nonzero"/><path fill="#9d7550" d="M 694.242188 409.566406 C 694.53125 407.160156 695.292969 404.824219 694.578125 402.738281 C 694 400.589844 692.671875 398.613281 691.675781 396.441406 C 690.625 394.296875 689.609375 392.128906 688.296875 390.128906 C 687.003906 388.125 685.496094 386.265625 683.960938 384.441406 L 685.054688 383.984375 C 685.519531 386.03125 685.917969 388.09375 686.292969 390.152344 C 686.679688 392.210938 687.050781 394.269531 687.324219 396.34375 C 687.632812 398.410156 687.8125 400.503906 688.054688 402.585938 C 688.144531 403.601562 688.269531 404.609375 688.558594 405.570312 C 688.828125 406.53125 689.238281 407.472656 690.015625 408.148438 L 689.921875 408.300781 C 688.917969 407.832031 688.234375 406.851562 687.757812 405.882812 C 687.285156 404.886719 686.976562 403.84375 686.726562 402.792969 C 686.320312 400.738281 685.84375 398.695312 685.496094 396.636719 C 685.117188 394.574219 684.839844 392.5 684.578125 390.421875 C 684.296875 388.347656 684.039062 386.265625 683.851562 384.179688 L 683.617188 381.601562 L 684.945312 383.722656 C 686.222656 385.761719 687.433594 387.835938 688.746094 389.839844 C 690.039062 391.859375 691.511719 393.761719 692.851562 395.761719 C 694.164062 397.75 695.445312 399.882812 695.957031 402.425781 C 696.230469 403.664062 696.121094 405.074219 695.742188 406.234375 C 695.386719 407.417969 694.890625 408.507812 694.414062 409.617188 L 694.242188 409.566406 " fill-opacity="1" fill-rule="nonzero"/><path fill="#9d7550" d="M 691.558594 408.695312 C 691.351562 406.613281 690.957031 404.777344 690.570312 402.863281 C 690.410156 401.929688 690.265625 400.851562 689.96875 399.882812 C 689.671875 398.902344 689.207031 397.988281 688.703125 397.085938 C 687.652344 395.300781 686.835938 393.425781 686.113281 391.519531 C 685.460938 389.585938 684.9375 387.601562 684.746094 385.484375 L 684.910156 385.425781 C 686.167969 387.132812 687.078125 388.96875 687.875 390.855469 C 688.585938 392.765625 689.222656 394.714844 689.609375 396.746094 C 689.824219 397.753906 690.085938 398.75 690.507812 399.683594 C 690.910156 400.628906 691.574219 401.433594 691.988281 402.453125 C 692.699219 404.460938 692.753906 406.800781 691.730469 408.738281 L 691.558594 408.695312 " fill-opacity="1" fill-rule="nonzero"/><path fill="#9d7550" d="M 729.871094 457.871094 C 727.976562 453.5625 724.96875 450.007812 721.785156 446.59375 C 718.644531 443.128906 715.550781 439.621094 711.683594 437.199219 C 707.847656 434.738281 703.445312 433.191406 698.898438 432.304688 C 694.34375 431.421875 689.636719 431.289062 684.984375 431.589844 L 685.195312 431.140625 C 689.0625 436.445312 693.769531 441.132812 698.996094 445.015625 C 701.617188 446.953125 704.371094 448.679688 707.277344 450.117188 C 710.164062 451.574219 713.234375 452.675781 716.335938 453.691406 C 719.433594 454.699219 722.621094 455.667969 725.746094 456.523438 C 728.890625 457.339844 732 457.839844 735.171875 457.230469 C 736.769531 456.972656 738.363281 456.582031 740.015625 456.296875 C 741.671875 456.027344 743.328125 455.839844 744.992188 455.75 C 748.324219 455.542969 751.65625 455.820312 754.914062 456.394531 L 754.882812 456.574219 C 751.609375 456.269531 748.316406 456.367188 745.074219 456.734375 C 741.808594 457.0625 738.738281 457.984375 735.441406 458.695312 C 732.117188 459.457031 728.507812 459.136719 725.304688 458.261719 C 722.066406 457.398438 718.9375 456.476562 715.757812 455.46875 C 709.441406 453.421875 703.289062 450.375 698.140625 446.121094 C 692.929688 441.925781 688.628906 436.800781 684.738281 431.46875 L 684.425781 431.046875 L 684.953125 431.019531 C 689.636719 430.765625 694.351562 430.746094 699.058594 431.324219 C 703.746094 431.910156 708.449219 433.28125 712.53125 435.878906 C 716.628906 438.5 719.730469 442.203125 722.726562 445.777344 C 724.210938 447.589844 725.710938 449.425781 727.007812 451.410156 C 728.273438 453.414062 729.332031 455.558594 730.035156 457.8125 L 729.871094 457.871094 " fill-opacity="1" fill-rule="nonzero"/><path fill="#9d7550" d="M 697.144531 477.890625 C 700.433594 475.765625 703.785156 473.910156 707.226562 472.171875 C 708.96875 471.359375 710.765625 470.609375 712.453125 469.671875 C 714.152344 468.746094 715.648438 467.515625 717.457031 466.597656 C 719.304688 465.628906 721.398438 465.496094 723.199219 465.152344 C 725.058594 464.804688 726.878906 464.308594 728.632812 463.699219 C 732.179688 462.539062 735.421875 460.625 738.132812 457.824219 L 738.277344 457.925781 C 736.464844 461.453125 733.015625 464.085938 729.269531 465.476562 C 727.390625 466.179688 725.414062 466.5625 723.449219 466.796875 C 721.445312 467.058594 719.578125 466.925781 717.824219 467.496094 C 714.242188 468.71875 711.1875 471.378906 707.933594 473.464844 C 704.59375 475.457031 701 477.039062 697.21875 478.054688 L 697.144531 477.890625 " fill-opacity="1" fill-rule="nonzero"/><g clip-path="url(#c3db489e0e)"><path fill="#9d7550" d="M 715.390625 463.082031 C 717.929688 462.144531 720.59375 461.542969 723.359375 461.496094 C 724.734375 461.523438 726.171875 461.695312 727.492188 462.46875 C 728.144531 462.855469 728.765625 463.484375 729.042969 464.316406 C 729.3125 465.136719 729.199219 465.972656 729.027344 466.691406 C 727.203125 472.140625 723.207031 476.4375 718.488281 479.335938 C 713.753906 482.25 708.242188 483.730469 702.804688 483.9375 C 697.335938 484.179688 691.960938 483.445312 686.636719 482.472656 L 685.523438 482.269531 L 686.597656 481.820312 C 689.214844 480.722656 690.660156 478.105469 692.417969 475.753906 C 693.308594 474.574219 694.332031 473.375 695.707031 472.53125 C 697.09375 471.628906 698.65625 471.378906 699.964844 470.957031 C 702.625 470.136719 705.160156 468.710938 707.648438 467.203125 C 710.160156 465.71875 712.652344 464.128906 715.390625 463.082031 Z M 715.453125 463.25 C 712.722656 464.28125 710.371094 466.035156 708.050781 467.796875 C 705.722656 469.535156 703.332031 471.371094 700.441406 472.402344 C 698.996094 472.914062 697.621094 473.175781 696.527344 473.875 C 695.394531 474.542969 694.441406 475.558594 693.488281 476.625 C 692.546875 477.695312 691.640625 478.871094 690.597656 479.941406 C 689.554688 481.019531 688.285156 481.960938 686.824219 482.464844 L 686.78125 481.808594 C 691.988281 483.085938 697.425781 483.507812 702.714844 482.867188 C 707.980469 482.203125 713.144531 480.675781 717.519531 477.800781 C 721.894531 475.007812 725.542969 470.90625 727.570312 466.285156 C 727.960938 465.144531 727.839844 464.121094 726.855469 463.394531 C 725.910156 462.675781 724.609375 462.324219 723.316406 462.179688 C 720.699219 461.910156 717.96875 462.34375 715.453125 463.25 " fill-opacity="1" fill-rule="nonzero"/></g><path fill="#9d7550" d="M 728.710938 457.367188 C 725.351562 454.894531 722.316406 452.144531 719.273438 449.425781 C 717.789062 448.015625 716.316406 446.570312 714.636719 445.390625 C 712.964844 444.203125 711.125 443.273438 709.210938 442.550781 C 705.390625 441.109375 701.441406 439.886719 697.632812 438.265625 C 693.964844 436.675781 689.816406 435.277344 686.664062 432.464844 L 686.761719 432.3125 C 690.488281 434.152344 694.40625 435.007812 698.347656 436.515625 C 702.121094 438.132812 705.992188 439.585938 709.625 441.671875 C 711.445312 442.695312 713.191406 443.828125 714.957031 444.914062 C 716.71875 446 718.535156 447.050781 720.214844 448.292969 C 723.503906 450.855469 726.339844 453.914062 728.835938 457.246094 L 728.710938 457.367188 " fill-opacity="1" fill-rule="nonzero"/><path fill="#9d7550" d="M 739.277344 416.355469 C 742.914062 414.910156 746.015625 412.449219 748.429688 409.484375 C 750.820312 406.492188 752.679688 403.0625 753.75 399.398438 C 754.269531 397.574219 754.671875 395.734375 754.578125 393.875 C 754.5 392.011719 754.117188 390.136719 753.570312 388.292969 C 752.4375 384.59375 750.9375 380.957031 748.953125 377.605469 L 749.460938 377.621094 C 745.808594 382.902344 742.351562 388.492188 740.722656 394.652344 C 739.90625 397.71875 739.566406 400.84375 739.816406 404.003906 C 740.003906 407.160156 740.550781 410.355469 740.703125 413.660156 C 740.789062 415.296875 740.730469 417.023438 740.453125 418.601562 L 739.753906 423.417969 C 739.375 426.535156 739.324219 429.714844 739.71875 432.851562 C 740.496094 439.128906 742.796875 445.246094 746.464844 450.554688 L 746.328125 450.664062 C 742.105469 445.75 739.207031 439.585938 738.191406 433.074219 C 737.640625 429.824219 737.550781 426.488281 737.921875 423.195312 C 738.226562 419.988281 739.042969 416.839844 738.855469 413.71875 C 738.789062 410.570312 738.316406 407.363281 738.191406 404.078125 C 738.035156 400.789062 738.515625 397.414062 739.554688 394.296875 C 741.671875 388.027344 745.464844 382.6875 748.960938 377.28125 L 749.214844 376.882812 L 749.472656 377.296875 C 751.503906 380.667969 753.335938 384.179688 754.726562 387.90625 C 755.417969 389.773438 755.984375 391.742188 756.082031 393.808594 C 756.191406 395.867188 755.875 397.941406 755.238281 399.855469 C 753.980469 403.671875 752.042969 407.292969 749.320312 410.25 C 746.632812 413.210938 743.175781 415.550781 739.332031 416.527344 L 739.277344 416.355469 " fill-opacity="1" fill-rule="nonzero"/><path fill="#9d7550" d="M 739.292969 428.359375 C 739.617188 427.03125 740.527344 425.960938 741.488281 425.027344 C 742.472656 424.101562 743.597656 423.335938 744.800781 422.671875 C 747.210938 421.316406 750.019531 420.832031 752.714844 420.738281 C 755.429688 420.644531 758.085938 420.90625 760.730469 421.273438 C 763.378906 421.640625 765.992188 422.222656 768.535156 423.011719 L 769.929688 423.4375 L 768.648438 423.976562 C 766.125 425.035156 763.628906 426.15625 761.195312 427.398438 C 758.734375 428.609375 756.515625 430.191406 753.882812 431.296875 C 751.1875 432.417969 748.199219 432.332031 745.519531 431.972656 C 744.207031 431.800781 742.78125 431.816406 741.40625 431.457031 C 740.734375 431.261719 740.011719 431.011719 739.546875 430.417969 C 739.09375 429.8125 739.125 429.023438 739.292969 428.359375 Z M 739.464844 428.402344 C 739.324219 429.042969 739.3125 429.777344 739.742188 430.265625 C 740.183594 430.730469 740.839844 430.933594 741.496094 430.992188 C 742.816406 431.125 744.144531 430.902344 745.5625 430.839844 C 748.304688 430.707031 750.917969 430.714844 753.40625 429.921875 C 754.671875 429.578125 755.921875 429.066406 757.1875 428.539062 C 758.453125 428.019531 759.714844 427.488281 760.945312 426.894531 C 763.40625 425.710938 765.8125 424.40625 768.191406 423.042969 L 768.292969 424.011719 C 765.710938 423.5625 763.125 423.210938 760.53125 422.949219 C 757.945312 422.710938 755.328125 422.589844 752.761719 422.609375 C 750.199219 422.644531 747.683594 422.949219 745.257812 423.714844 C 744.039062 424.121094 742.855469 424.675781 741.792969 425.402344 C 740.742188 426.140625 739.808594 427.144531 739.464844 428.402344 " fill-opacity="1" fill-rule="nonzero"/><path fill="#9d7550" d="M 739.457031 418.628906 C 738.710938 416.921875 737.660156 415.429688 736.539062 414.011719 C 735.421875 412.585938 734.164062 411.28125 732.828125 410.097656 C 731.488281 408.9375 730.058594 407.734375 728.5625 406.636719 C 727.078125 405.515625 725.480469 404.554688 723.894531 403.566406 L 724.375 403.261719 C 724.816406 405.542969 725.542969 407.75 726.222656 409.945312 C 726.921875 412.136719 727.652344 414.320312 728.714844 416.230469 C 729.753906 418.183594 731.207031 419.628906 733.160156 420.90625 C 735.027344 422.222656 737.128906 423.480469 738.628906 425.351562 L 738.503906 425.476562 C 736.625 424.109375 734.464844 423.300781 732.398438 422.152344 C 731.371094 421.578125 730.300781 420.984375 729.347656 420.113281 C 728.417969 419.25 727.636719 418.234375 727.066406 417.136719 C 725.898438 414.941406 725.304688 412.621094 724.761719 410.339844 C 724.230469 408.039062 724.003906 405.683594 723.753906 403.355469 L 723.6875 402.640625 L 724.246094 403.050781 C 725.738281 404.140625 727.339844 405.085938 729 405.945312 C 730.652344 406.828125 732.34375 407.679688 733.851562 408.902344 C 735.34375 410.144531 736.570312 411.648438 737.605469 413.257812 C 738.613281 414.867188 739.421875 416.679688 739.628906 418.578125 L 739.457031 418.628906 " fill-opacity="1" fill-rule="nonzero"/><path fill="#9d7550" d="M 765.769531 423.75 C 764.859375 424.542969 763.628906 424.835938 762.570312 425.070312 C 761.480469 425.304688 760.371094 425.492188 759.253906 425.527344 C 758.132812 425.539062 756.992188 425.414062 755.875 425.484375 C 754.761719 425.554688 753.667969 425.800781 752.578125 426.09375 C 750.40625 426.75 748.160156 426.949219 746.210938 427.578125 C 744.199219 428.125 742.199219 429.042969 740.003906 429.730469 L 739.90625 429.578125 C 741.519531 427.953125 743.382812 426.5625 745.644531 425.773438 C 746.785156 425.394531 747.964844 425.269531 749.09375 425.1875 C 750.226562 425.089844 751.332031 425.097656 752.464844 425.125 C 753.585938 425.144531 754.707031 425.117188 755.804688 424.917969 C 756.902344 424.71875 757.972656 424.328125 759.066406 424.066406 C 760.160156 423.824219 761.273438 423.75 762.390625 423.707031 C 763.53125 423.660156 764.574219 423.769531 765.6875 423.589844 L 765.769531 423.75 " fill-opacity="1" fill-rule="nonzero"/></svg>