<svg xmlns="http://www.w3.org/2000/svg" xmlns:xlink="http://www.w3.org/1999/xlink" width="1920" zoomAndPan="magnify" viewBox="0 0 1440 809.999993" height="1080" preserveAspectRatio="xMidYMid meet" version="1.0"><defs><clipPath id="b3b6fca9ea"><path d="M 674 198.75 L 741 198.75 L 741 265 L 674 265 Z M 674 198.75 " clip-rule="nonzero"/></clipPath><clipPath id="d3689d08c4"><path d="M 517.5 281 L 922.460938 281 L 922.460938 611.25 L 517.5 611.25 Z M 517.5 281 " clip-rule="nonzero"/></clipPath></defs><g clip-path="url(#b3b6fca9ea)"><path fill="#000000" d="M 712.023438 205.945312 C 706.652344 211.941406 707.050781 217.777344 706.007812 216.0625 C 697.132812 201.617188 673.9375 205.074219 674.472656 224.292969 C 674.910156 240.25 689.007812 251.261719 703.269531 257.542969 C 718.75 264.371094 721.855469 267.070312 723.996094 262.375 C 733.527344 241.515625 739.8125 234.011719 740.664062 218.15625 C 741.667969 199.785156 724.566406 191.925781 712.023438 205.945312 Z M 729.976562 235.117188 C 729.21875 236.835938 719.742188 257.414062 718.339844 256.863281 C 648.402344 228.609375 696.632812 195.027344 704.625 226.484375 C 705.203125 228.714844 709.988281 229.71875 710.851562 225.109375 C 716.53125 194.890625 744.710938 201.808594 729.976562 235.113281 Z M 729.976562 235.117188 " fill-opacity="1" fill-rule="nonzero"/></g><path fill="#000000" d="M 835.691406 262.074219 C 832.75 252.210938 819.523438 248.316406 807.578125 260.675781 C 806.046875 262.273438 807.671875 255.171875 803.164062 248.902344 C 789.695312 230.230469 763.324219 247.746094 774.054688 278.339844 C 778.917969 292.183594 781.34375 298.164062 783.199219 306.59375 C 784.035156 310.453125 785.636719 313.539062 789.882812 310.878906 C 809.914062 298.351562 842.386719 284.523438 835.695312 262.074219 Z M 829.367188 268.972656 C 828.503906 284.914062 789.199219 303.128906 788.980469 302.222656 C 785.867188 288.859375 770.65625 262.011719 783.679688 250.8125 C 788.371094 246.792969 802.53125 246.882812 801.050781 270.601562 C 800.804688 274.601562 804.898438 275.726562 806.574219 273.105469 C 818.476562 254.339844 829.976562 257.714844 829.367188 268.972656 Z M 829.367188 268.972656 " fill-opacity="1" fill-rule="nonzero"/><g clip-path="url(#d3689d08c4)"><path fill="#111111" d="M 921.253906 460.28125 C 911.261719 385.527344 835.785156 335.820312 761.96875 358.539062 C 718.476562 371.925781 706.917969 397.375 703.707031 395.121094 C 686.378906 383.292969 678.039062 382.460938 679.761719 381.265625 C 690.613281 373.496094 696.835938 368.363281 737.019531 335.863281 C 739.355469 333.957031 738.550781 334.039062 724.140625 299.246094 C 723.261719 297.132812 722.21875 295.980469 721.023438 295.769531 C 673.824219 287.742188 646.046875 283.066406 637.6875 281.75 C 633.4375 281.066406 611.945312 303.402344 609.324219 306.179688 C 607.859375 307.710938 607.761719 309.632812 609.011719 311.949219 C 639.332031 367.984375 646.550781 374.316406 643.902344 374.101562 C 581.101562 370.097656 525.585938 414.046875 518.320312 477.777344 C 505.464844 590.425781 638.886719 655.503906 720.53125 576.210938 C 722.726562 574.011719 747.4375 600.984375 796.949219 602.40625 C 867.433594 604.492188 932.117188 541.351562 921.253906 460.277344 Z M 726.421875 336.335938 C 654.683594 393.011719 659.636719 396.269531 700.957031 330.410156 C 701.449219 329.621094 701.066406 330 726.050781 334.824219 C 726.765625 334.964844 726.988281 335.886719 726.421875 336.335938 Z M 664.269531 377.265625 C 663.863281 377.921875 663.457031 377.679688 659.796875 376.917969 C 658.8125 376.714844 659.152344 376.960938 654.578125 321.429688 C 654.449219 319.863281 653.082031 320.03125 693.679688 328.117188 C 695.367188 328.453125 696.183594 325.8125 664.269531 377.265625 Z M 719.671875 306.359375 C 729.914062 329.546875 730.179688 329.324219 729.105469 329.121094 C 704.703125 324.523438 705.308594 324.652344 705.84375 323.933594 C 719.648438 305.464844 719.277344 305.464844 719.671875 306.359375 Z M 689.433594 296.699219 C 715.964844 301.429688 715.476562 301.089844 714.886719 301.933594 C 702.007812 320.25 702.425781 320.296875 701.90625 319.417969 C 688.574219 296.941406 688.042969 296.449219 689.433594 296.699219 Z M 683.105469 300.847656 C 696.625 321.582031 697.691406 322.773438 696.027344 322.457031 C 659.089844 315.488281 658.496094 315.277344 659.449219 314.65625 C 682.335938 299.648438 682.160156 299.398438 683.105469 300.847656 Z M 643.789062 288.984375 C 678.292969 294.808594 679.804688 294.554688 678.175781 295.589844 C 650.894531 312.972656 652.574219 312.429688 652.238281 311.625 C 642.808594 288.988281 642.507812 288.769531 643.789062 288.984375 Z M 618.558594 306.550781 C 636.808594 288.570312 635.980469 289.371094 636.253906 290.035156 C 645.855469 313.160156 646.214844 312.605469 645.320312 312.441406 C 617.023438 307.257812 617.90625 307.191406 618.558594 306.550781 Z M 617.027344 313.75 C 616.355469 312.558594 616.371094 312.308594 648.058594 319.183594 C 648.574219 319.296875 648.59375 319.148438 652.976562 374.40625 C 653.203125 377.230469 650.132812 372.402344 617.027344 313.75 Z M 715.3125 572.320312 C 652.769531 627.707031 574.34375 605.8125 540.980469 551.359375 C 508.367188 498.121094 522.988281 424.222656 585.472656 392.460938 C 656.589844 356.285156 740.765625 405.121094 746.945312 483.289062 C 749.578125 516.523438 734.433594 547.9375 732.636719 545.84375 C 722.394531 533.917969 721.121094 533.320312 722.164062 530.605469 C 760.636719 430.621094 652.878906 363.882812 582.152344 413.230469 C 529.785156 449.785156 525.445312 525.75 577.21875 567.679688 C 611.152344 595.152344 667.398438 596.484375 702.824219 559.21875 C 703.46875 558.515625 703.199219 558.484375 715.367188 570.8125 C 715.78125 571.234375 715.757812 571.929688 715.308594 572.320312 Z M 751.339844 466.21875 C 743.710938 429.875 725.011719 418.355469 727.550781 415.625 C 780.5 358.789062 869.390625 383.394531 887.832031 454.320312 C 911.1875 544.1875 805.589844 606.09375 740.519531 551.425781 C 734.917969 546.753906 762.753906 520.566406 751.339844 466.214844 Z M 717.902344 524.222656 C 715.945312 529.535156 694.421875 488.691406 710.203125 445.800781 C 712.082031 440.707031 733.761719 481.214844 717.902344 524.222656 Z M 688.4375 421.519531 C 668.160156 458.578125 667.980469 507.261719 698.589844 552.117188 C 699.148438 552.945312 699.046875 554.050781 698.34375 554.757812 C 656.101562 597.59375 592.820312 585.457031 563.816406 544.324219 C 525.289062 489.753906 557.566406 418.453125 615.609375 405.675781 C 657.058594 396.542969 689.542969 419.425781 688.4375 421.519531 Z M 856.160156 580.113281 C 776.222656 625.972656 679.714844 565.765625 681.09375 475.519531 C 681.429688 453.425781 691.746094 421.847656 695.714844 426.234375 C 705.707031 437.277344 706.582031 437.4375 705.671875 439.574219 C 677.601562 505.914062 727.402344 583.148438 805.273438 577.730469 C 860.136719 573.007812 896.589844 530.335938 897.542969 481.019531 C 899.367188 386.738281 786.695312 342.113281 723.164062 410.179688 C 722.179688 411.25 722.398438 410.796875 710.433594 399.917969 C 708.546875 398.203125 726.835938 383.550781 731.113281 380.652344 C 809.519531 327.535156 913.976562 381.816406 915.582031 475.140625 C 916.355469 519.503906 894.601562 558.054688 856.15625 580.113281 Z M 856.160156 580.113281 " fill-opacity="1" fill-rule="nonzero"/></g></svg>